<svg xmlns="http://www.w3.org/2000/svg" viewBox="0 0 128 128" role="img" aria-labelledby="title desc">
  <title id="title">World Cup 2026 inspired soccer mark</title>
  <desc id="desc">A green and burgundy soccer tournament badge with a gold cup shape.</desc>
  <circle cx="64" cy="64" r="58" fill="#008249"/>
  <path d="M23 91c17-18 34-26 51-24 13 1 23-4 31-16" fill="none" stroke="#76122b" stroke-width="19" stroke-linecap="round" opacity="0.9"/>
  <path d="M43 31h42v20c0 16-9 29-21 29S43 67 43 51V31z" fill="#d4af37"/>
  <path d="M38 34h-9c0 14 6 23 18 26M90 34h9c0 14-6 23-18 26" fill="none" stroke="#d4af37" stroke-width="7" stroke-linecap="round"/>
  <rect x="55" y="78" width="18" height="12" fill="#d4af37"/>
  <rect x="43" y="90" width="42" height="8" rx="4" fill="#d4af37"/>
  <text x="64" y="114" text-anchor="middle" font-family="Arial, Helvetica, sans-serif" font-size="14" font-weight="800" fill="#ffffff">2026</text>
</svg>
